<svg xmlns="http://www.w3.org/2000/svg" viewBox="0 0 800 533" width="800" height="533">
  <defs>
    <linearGradient id="bg-grad" x1="0%" y1="0%" x2="100%" y2="100%">
      <stop offset="0%" stop-color="#020d1c"/>
      <stop offset="50%" stop-color="#011B39"/>
      <stop offset="100%" stop-color="#082245"/>
    </linearGradient>
    <linearGradient id="gold-grad" x1="0%" y1="0%" x2="100%" y2="100%">
      <stop offset="0%" stop-color="#F2D184"/>
      <stop offset="50%" stop-color="#BE8C33"/>
      <stop offset="100%" stop-color="#8a6114"/>
    </linearGradient>
    <pattern id="grid-pattern" x="0" y="0" width="24" height="24" patternUnits="userSpaceOnUse">
      <circle cx="2" cy="2" r="1.2" fill="#BE8C33" fill-opacity="0.12"/>
    </pattern>
    <filter id="svg-glow" x="-20%" y="-20%" width="140%" height="140%">
      <feGaussianBlur stdDeviation="8" result="blur"/>
      <feComposite in="SourceGraphic" in2="blur" operator="over"/>
    </filter>
  </defs>

  <rect width="800" height="533" rx="16" fill="url(#bg-grad)"/>
  <rect width="800" height="533" rx="16" fill="url(#grid-pattern)"/>
  <circle cx="400" cy="266.5" r="210" fill="#BE8C33" fill-opacity="0.07" filter="url(#svg-glow)"/>

  
  <g transform="translate(44, 34)">
    <rect width="250" height="32" rx="16" fill="#031b38" stroke="#BE8C33" stroke-width="1.2"/>
    <circle cx="18" cy="16" r="5" fill="#BE8C33"/>
    <text x="32" y="21" font-family="-apple-system, BlinkMacSystemFont, sans-serif" font-size="12" font-weight="700" fill="#FFFFFF" letter-spacing="0.5">LEARNDASH ADD-ONS SUITE</text>
  </g>

  
  <g transform="translate(560, 34)">
    <rect width="196" height="32" rx="16" fill="#07244a" stroke="#255a9b" stroke-width="1"/>
    <text x="18" y="21" font-family="-apple-system, BlinkMacSystemFont, sans-serif" font-size="12" font-weight="600" fill="#93c5fd">Official Addon Ecosystem</text>
  </g>

  
  <g transform="translate(44, 90)">
    <rect width="712" height="390" rx="14" fill="#041427" stroke="#1d487c" stroke-width="1.5"/>
    <rect width="712" height="42" rx="14" fill="#030e1d"/>
    <circle cx="22" cy="21" r="5" fill="#f87171"/>
    <circle cx="38" cy="21" r="5" fill="#fbbf24"/>
    <circle cx="54" cy="21" r="5" fill="#34d399"/>
    <text x="76" y="26" font-family="monospace" font-size="12" fill="#94a3b8">addons.arwebcrafts.com/learndash</text>

    <!-- Addon 1: Certificate Verify -->
    <g transform="translate(36, 65)">
      <rect width="195" height="190" rx="10" fill="#020e1e" stroke="#BE8C33" stroke-width="1.2"/>
      <rect width="195" height="34" rx="10" fill="#072242"/>
      <text x="14" y="22" font-family="sans-serif" font-size="11" font-weight="700" fill="#F2D184">Certificate Verify &amp; Share</text>
      <text x="14" y="58" font-family="sans-serif" font-size="10" fill="#cbd5e1">Enables students to verify &amp; share credentials on LinkedIn &amp; X with 1 click.</text>
      <rect x="14" y="140" width="167" height="30" rx="4" fill="#BE8C33"/>
      <text x="97" y="160" text-anchor="middle" font-family="sans-serif" font-size="10" font-weight="800" fill="#011B39">COMMERCIAL READY</text>
    </g>

    <!-- Addon 2: Progress Reset -->
    <g transform="translate(258, 65)">
      <rect width="195" height="190" rx="10" fill="#020e1e" stroke="#255a9b" stroke-width="1"/>
      <rect width="195" height="34" rx="10" fill="#072242"/>
      <text x="14" y="22" font-family="sans-serif" font-size="11" font-weight="700" fill="#FFFFFF">Course Progress Reset</text>
      <text x="14" y="58" font-family="sans-serif" font-size="10" fill="#cbd5e1">Allow students or group leaders to reset attempts, quizzes, and progression.</text>
      <rect x="14" y="140" width="167" height="30" rx="4" fill="#044e35"/>
      <text x="97" y="160" text-anchor="middle" font-family="sans-serif" font-size="10" font-weight="700" fill="#34d399">ACTIVE ADDON</text>
    </g>

    <!-- Addon 3: Retake Quiz -->
    <g transform="translate(480, 65)">
      <rect width="195" height="190" rx="10" fill="#020e1e" stroke="#255a9b" stroke-width="1"/>
      <rect width="195" height="34" rx="10" fill="#072242"/>
      <text x="14" y="22" font-family="sans-serif" font-size="11" font-weight="700" fill="#FFFFFF">LearnDash Retake Quiz</text>
      <text x="14" y="58" font-family="sans-serif" font-size="10" fill="#cbd5e1">Timed quiz attempts, passing score controls, and individual question locks.</text>
      <rect x="14" y="140" width="167" height="30" rx="4" fill="#044e35"/>
      <text x="97" y="160" text-anchor="middle" font-family="sans-serif" font-size="10" font-weight="700" fill="#34d399">ACTIVE ADDON</text>
    </g>

    <g transform="translate(36, 280)">
      <rect width="640" height="85" rx="8" fill="#061c38" stroke="#1d487c" stroke-width="1"/>
      <text x="24" y="32" font-family="sans-serif" font-size="12" font-weight="700" fill="#FFFFFF">Tailor-Made Extensions for Corporate &amp; Educational LMS Platforms</text>
      <text x="24" y="52" font-family="sans-serif" font-size="11" fill="#94a3b8">We solve the exact functional gaps standard LearnDash plugins leave behind.</text>
    </g>
  </g>
</svg>