<svg xmlns="http://www.w3.org/2000/svg" viewBox="0 0 1200 900" width="1200" height="900">
  <defs>
    <linearGradient id="bgGrad" x1="0" y1="0" x2="1" y2="1">
      <stop offset="0%" stop-color="#0B131E"/>
      <stop offset="60%" stop-color="#162232"/>
      <stop offset="100%" stop-color="#0E1B2A"/>
    </linearGradient>
    <linearGradient id="accentGrad" x1="0" y1="0" x2="1" y2="0">
      <stop offset="0%" stop-color="#BE8C33"/>
      <stop offset="100%" stop-color="#D4A346"/>
    </linearGradient>
    <filter id="shadow" x="-5%" y="-5%" width="110%" height="110%">
      <feDropShadow dx="0" dy="8" stdDeviation="16" flood-color="#000" flood-opacity="0.25"/>
    </filter>
  </defs>

  <!-- Browser Window Frame -->
  <rect width="1200" height="900" fill="#E2E5E8"/>
  
  <!-- Browser Header / Chrome -->
  <rect width="1200" height="48" fill="#D2D6DC"/>
  <circle cx="28" cy="24" r="6.5" fill="#EF4444"/>
  <circle cx="48" cy="24" r="6.5" fill="#F59E0B"/>
  <circle cx="68" cy="24" r="6.5" fill="#10B981"/>
  
  <!-- Address Bar -->
  <rect x="180" y="10" width="840" height="28" rx="6" fill="#FFFFFF"/>
  <path d="M200 24 A4 4 0 0 1 208 24 M204 20 L204 22 M200 22 L208 22 L208 26 L200 26 Z" stroke="#10B981" stroke-width="1.8" fill="none"/>
  <text x="216" y="29" font-family="-apple-system, BlinkMacSystemFont, 'Segoe UI', Roboto, sans-serif" font-size="13" font-weight="500" fill="#1F2937">https://apexroofingpros.com</text>
  <rect x="980" y="16" width="28" height="16" rx="3" fill="#E5E7EB"/>
  <text x="987" y="28" font-family="sans-serif" font-size="11" fill="#6B7280">En</text>

  <!-- Website Content Area -->
  <rect y="48" width="1200" height="852" fill="url(#bgGrad)"/>

  <!-- Top Announcement Bar -->
  <rect y="48" width="1200" height="36" fill="#BE8C33"/>
  <text x="40" y="71" font-family="'Roboto Mono', monospace" font-size="12" font-weight="600" fill="#FFFFFF" letter-spacing="1">âš¡ 24/7 EMERGENCY LEAK DISPATCH &#183; LIC #ROC-338291 &#183; FINANCING AVAILABLE</text>
  <text x="1000" y="71" font-family="'Roboto Mono', monospace" font-size="12" font-weight="700" fill="#FFFFFF">CALL: (307) 278-4862</text>

  <!-- Navbar -->
  <rect y="84" width="1200" height="74" fill="#0E1B2A" fill-opacity="0.95"/>
  <line x1="0" y1="158" x2="1200" y2="158" stroke="#253549" stroke-width="1"/>
  
  <!-- Logo -->
  <text x="60" y="130" font-family="'Archivo Black', Impact, sans-serif" font-size="24" fill="#FFFFFF" letter-spacing="-0.5">APEX <tspan fill="#BE8C33">ROOFING</tspan></text>
  <text x="60" y="146" font-family="sans-serif" font-size="10" font-weight="700" fill="#94A3B8" letter-spacing="2">COMMERCIAL &amp; RESIDENTIAL</text>

  <!-- Nav Links -->
  <text x="460" y="128" font-family="sans-serif" font-size="14" font-weight="600" fill="#FFFFFF">Roof Replacement</text>
  <text x="620" y="128" font-family="sans-serif" font-size="14" font-weight="500" fill="#94A3B8">Emergency Repairs</text>
  <text x="780" y="128" font-family="sans-serif" font-size="14" font-weight="500" fill="#94A3B8">Service Towns</text>
  <text x="910" y="128" font-family="sans-serif" font-size="14" font-weight="500" fill="#94A3B8">Warranty</text>

  <!-- Navbar CTA -->
  <rect x="1020" y="102" width="140" height="40" rx="3" fill="url(#accentGrad)"/>
  <text x="1046" y="127" font-family="sans-serif" font-size="13" font-weight="700" fill="#FFFFFF">Get Estimate</text>

  <!-- Hero Content -->
  <!-- Trust Badge -->
  <g transform="translate(60, 205)">
    <rect width="320" height="32" rx="4" fill="#1E293B" stroke="#334155" stroke-width="1"/>
    <circle cx="16" cy="16" r="5" fill="#10B981"/>
    <text x="32" y="21" font-family="'Roboto Mono', monospace" font-size="11" font-weight="600" fill="#E2E8F0" letter-spacing="0.5">VERIFIED 5-STAR RATED ROOFER</text>
  </g>

  <!-- Main Headline -->
  <text x="60" y="300" font-family="'Archivo Black', Impact, sans-serif" font-size="52" fill="#FFFFFF" line-height="1.1" letter-spacing="-1">NEW ROOFS &amp; RAPID REPAIRS.</text>
  <text x="60" y="358" font-family="'Archivo Black', Impact, sans-serif" font-size="52" fill="#BE8C33" letter-spacing="-1">DONE RIGHT IN 24 HOURS.</text>

  <text x="60" y="415" font-family="sans-serif" font-size="18" fill="#94A3B8" font-weight="400">Zero deposit on storm repairs. Lifetime manufacturer warranties. Serving Austin &amp; surrounding 30 miles.</text>

  <!-- Primary CTAs -->
  <rect x="60" y="455" width="220" height="56" rx="4" fill="#BE8C33" filter="url(#shadow)"/>
  <text x="96" y="490" font-family="sans-serif" font-size="16" font-weight="700" fill="#FFFFFF">Call (307) 278-4862</text>

  <rect x="296" y="455" width="210" height="56" rx="4" fill="none" stroke="#FFFFFF" stroke-width="2"/>
  <text x="332" y="490" font-family="sans-serif" font-size="16" font-weight="700" fill="#FFFFFF">Request Free Inspection</text>

  <!-- Review Proof Pills -->
  <g transform="translate(60, 545)">
    <text x="0" y="20" font-size="18" fill="#FBBF24">â˜…â˜…â˜…â˜…â˜…</text>
    <text x="90" y="19" font-family="sans-serif" font-size="14" font-weight="700" fill="#FFFFFF">5.0 Star Rated</text>
    <text x="185" y="19" font-family="sans-serif" font-size="14" fill="#94A3B8">&#183; Over 185 Homeowners Served</text>
  </g>

  <!-- Right Visual / Feature Cards Mockup -->
  <g transform="translate(680, 195)">
    <!-- Main Feature Box -->
    <rect width="460" height="420" rx="8" fill="#141E2B" stroke="#253549" stroke-width="1.5" filter="url(#shadow)"/>
    
    <!-- Header of card -->
    <rect width="460" height="60" rx="8" fill="#1A2737"/>
    <text x="24" y="36" font-family="'Archivo Black', Impact, sans-serif" font-size="16" fill="#FFFFFF">QUICK ESTIMATE CALCULATOR</text>
    <rect x="360" y="18" width="76" height="24" rx="12" fill="#BE8C33"/>
    <text x="375" y="34" font-family="sans-serif" font-size="11" font-weight="700" fill="#FFFFFF">Instant</text>

    <!-- Form Elements preview -->
    <text x="24" y="96" font-family="sans-serif" font-size="12" font-weight="600" fill="#94A3B8">PROJECT TYPE</text>
    <rect x="24" y="106" width="412" height="42" rx="4" fill="#0E1B2A" stroke="#334155"/>
    <text x="40" y="132" font-family="sans-serif" font-size="14" fill="#FFFFFF">Full Architectural Shingle Replacement</text>

    <text x="24" y="180" font-family="sans-serif" font-size="12" font-weight="600" fill="#94A3B8">ROOF AGE &amp; ESTIMATED SQ FT</text>
    <rect x="24" y="190" width="412" height="42" rx="4" fill="#0E1B2A" stroke="#334155"/>
    <text x="40" y="216" font-family="sans-serif" font-size="14" fill="#FFFFFF">15+ Years &#183; Approx 2,400 sq. ft.</text>

    <text x="24" y="264" font-family="sans-serif" font-size="12" font-weight="600" fill="#94A3B8">YOUR PHONE NUMBER</text>
    <rect x="24" y="274" width="412" height="42" rx="4" fill="#0E1B2A" stroke="#334155"/>
    <text x="40" y="300" font-family="sans-serif" font-size="14" fill="#64748B">(512) 000-0000</text>

    <rect x="24" y="340" width="412" height="50" rx="4" fill="#BE8C33"/>
    <text x="136" y="371" font-family="sans-serif" font-size="15" font-weight="700" fill="#FFFFFF">Get Instant Estimate Now â†’</text>
  </g>

  <!-- 3 Service Feature Pills at bottom -->
  <g transform="translate(60, 680)">
    <rect width="320" height="150" rx="6" fill="#141E2B" stroke="#253549" stroke-width="1"/>
    <rect x="20" y="20" width="36" height="36" rx="4" fill="#BE8C33"/>
    <text x="29" y="44" font-size="20" fill="#FFFFFF">ðŸ </text>
    <text x="70" y="43" font-family="'Archivo Black', Impact, sans-serif" font-size="16" fill="#FFFFFF">Full Roof Replacements</text>
    <text x="20" y="85" font-family="sans-serif" font-size="13" fill="#94A3B8">Class 4 Impact Resistant shingles, 50-year warranty, clean site guarantee.</text>
    <text x="20" y="132" font-family="'Roboto Mono', monospace" font-size="11" font-weight="600" fill="#BE8C33">LEARN MORE â†’</text>
  </g>

  <g transform="translate(420, 680)">
    <rect width="320" height="150" rx="6" fill="#141E2B" stroke="#253549" stroke-width="1"/>
    <rect x="20" y="20" width="36" height="36" rx="4" fill="#BE8C33"/>
    <text x="29" y="44" font-size="20" fill="#FFFFFF">âš¡</text>
    <text x="70" y="43" font-family="'Archivo Black', Impact, sans-serif" font-size="16" fill="#FFFFFF">Emergency Storm Tarp</text>
    <text x="20" y="85" font-family="sans-serif" font-size="13" fill="#94A3B8">Within 60 minutes on-site. We handle insurance claims from start to finish.</text>
    <text x="20" y="132" font-family="'Roboto Mono', monospace" font-size="11" font-weight="600" fill="#BE8C33">LEARN MORE â†’</text>
  </g>

  <g transform="translate(780, 680)">
    <rect width="360" height="150" rx="6" fill="#141E2B" stroke="#253549" stroke-width="1"/>
    <rect x="20" y="20" width="36" height="36" rx="4" fill="#BE8C33"/>
    <text x="29" y="44" font-size="20" fill="#FFFFFF">ðŸ’§</text>
    <text x="70" y="43" font-family="'Archivo Black', Impact, sans-serif" font-size="16" fill="#FFFFFF">Seamless Gutters &amp; Siding</text>
    <text x="20" y="85" font-family="sans-serif" font-size="13" fill="#94A3B8">Custom fabricated on-site. Protect your foundation from water intrusion.</text>
    <text x="20" y="132" font-family="'Roboto Mono', monospace" font-size="11" font-weight="600" fill="#BE8C33">LEARN MORE â†’</text>
  </g>
</svg>


